<svg version="1.1" xmlns="http://www.w3.org/2000/svg" xmlns:xlink="http://www.w3.org/1999/xlink" width="315.47749" height="78.56478" viewBox="0,0,315.47749,78.56478"><g transform="translate(-82.42542,-113.59431)"><g data-paper-data="{&quot;isPaintingLayer&quot;:true}" fill-rule="nonzero" stroke-linecap="butt" stroke-linejoin="miter" stroke-miterlimit="10" stroke-dasharray="" stroke-dashoffset="0" style="mix-blend-mode: normal"><text transform="translate(82.58882,186) scale(0.32681,0.5)" font-size="40" xml:space="preserve" fill="#ff1c1c" fill-rule="nonzero" stroke="none" stroke-width="1" stroke-linecap="butt" stroke-linejoin="miter" stroke-miterlimit="10" stroke-dasharray="" stroke-dashoffset="0" font-family="Sans Serif" font-weight="normal" text-anchor="start" style="mix-blend-mode: normal"><tspan x="0" dy="0">Sub To https://www.youtube.com/@Thebuilder201</tspan></text><path d="M191.26334,148.01098c0,-7.06419 0,-15.56539 0,-19.66667c0,-4.59573 5.94933,-13 11.33333,-13c9.20101,0 38.81711,2 56.33333,2c7.89606,0 13.33333,10.78866 13.33333,17c0,4.08897 0,11.10578 0,16.66667c0,4.68291 -5.74845,8.33333 -11,8.33333c-9.95068,0 -44.44622,0 -61,0c-5.48485,0 -9,-5.10882 -9,-11.33333z" fill="#ff1c1c" stroke="#ab1313" stroke-width="3.5"/><path d="M212.59668,151.67765c0,0 -5,-13.48215 -5,-18.67765c0,-4.09632 5,-9.98902 5,-9.98902c0,0 12.73421,4.3132 19.39906,6.57065c7.08699,2.40043 21.93427,7.42935 21.93427,7.42935l0.33333,2z" data-paper-data="{&quot;index&quot;:null}" fill="#ffffff" stroke="#ababab" stroke-width="3.5"/></g></g></svg>